<svg width="318" height="65" viewBox="0 0 318 65" fill="none" xmlns="http://www.w3.org/2000/svg">
<path d="M21.2809 0H318V65H0L21.2809 0Z" fill="#F6D005"/>
<path d="M65.6406 32.7891C65.6406 34.7656 65.2031 36.3359 64.3281 37.5C63.4531 38.6562 62.2812 39.2344 60.8125 39.2344C59.0781 39.2344 57.75 38.625 56.8281 37.4062V43.875H55.4336V26.3203H56.7344L56.8047 28.1133C57.7188 26.7617 59.043 26.0859 60.7773 26.0859C62.293 26.0859 63.4805 26.6602 64.3398 27.8086C65.207 28.957 65.6406 30.5508 65.6406 32.5898V32.7891ZM64.2344 32.543C64.2344 30.9258 63.9023 29.6484 63.2383 28.7109C62.5742 27.7734 61.6484 27.3047 60.4609 27.3047C59.6016 27.3047 58.8633 27.5117 58.2461 27.9258C57.6289 28.3398 57.1562 28.9414 56.8281 29.7305V35.8125C57.1641 36.5391 57.6445 37.0938 58.2695 37.4766C58.8945 37.8594 59.6328 38.0508 60.4844 38.0508C61.6641 38.0508 62.582 37.582 63.2383 36.6445C63.9023 35.6992 64.2344 34.332 64.2344 32.543ZM67.9844 32.4727C67.9844 31.2539 68.2188 30.1562 68.6875 29.1797C69.1641 28.2031 69.832 27.4453 70.6914 26.9062C71.5586 26.3594 72.5391 26.0859 73.6328 26.0859C75.3203 26.0859 76.6875 26.6797 77.7344 27.8672C78.7812 29.0469 79.3047 30.6133 79.3047 32.5664V32.8594C79.3047 34.0859 79.0664 35.1914 78.5898 36.1758C78.1211 37.1523 77.457 37.9062 76.5977 38.4375C75.7383 38.9688 74.7578 39.2344 73.6562 39.2344C71.9766 39.2344 70.6094 38.6445 69.5547 37.4648C68.5078 36.2773 67.9844 34.707 67.9844 32.7539V32.4727ZM69.3906 32.8594C69.3906 34.375 69.7812 35.6211 70.5625 36.5977C71.3516 37.5664 72.3828 38.0508 73.6562 38.0508C74.9219 38.0508 75.9453 37.5664 76.7266 36.5977C77.5156 35.6211 77.9102 34.3359 77.9102 32.7422V32.4727C77.9102 31.5039 77.7305 30.6172 77.3711 29.8125C77.0117 29.0078 76.5078 28.3867 75.8594 27.9492C75.2109 27.5039 74.4688 27.2812 73.6328 27.2812C72.3828 27.2812 71.3633 27.7734 70.5742 28.7578C69.7852 29.7344 69.3906 31.0156 69.3906 32.6016V32.8594ZM85.2461 36.082L85.457 37.1719L85.7383 36.0234L88.7852 26.3203H89.9805L92.9922 35.9414L93.3203 37.2773L93.5898 36.0469L96.1914 26.3203H97.6445L93.9531 39H92.7578L89.5 28.9453L89.3477 28.2539L89.1953 28.957L85.9961 39H84.8008L81.1211 26.3203H82.5625L85.2461 36.082ZM105.215 39.2344C104.137 39.2344 103.16 38.9688 102.285 38.4375C101.418 37.9062 100.742 37.168 100.258 36.2227C99.7734 35.2695 99.5312 34.2031 99.5312 33.0234V32.5195C99.5312 31.3008 99.7656 30.2031 100.234 29.2266C100.711 28.25 101.371 27.4844 102.215 26.9297C103.059 26.3672 103.973 26.0859 104.957 26.0859C106.496 26.0859 107.715 26.6133 108.613 27.668C109.52 28.7148 109.973 30.1484 109.973 31.9688V32.7539H100.926V33.0234C100.926 34.4609 101.336 35.6602 102.156 36.6211C102.984 37.5742 104.023 38.0508 105.273 38.0508C106.023 38.0508 106.684 37.9141 107.254 37.6406C107.832 37.3672 108.355 36.9297 108.824 36.3281L109.703 36.9961C108.672 38.4883 107.176 39.2344 105.215 39.2344ZM104.957 27.2812C103.902 27.2812 103.012 27.668 102.285 28.4414C101.566 29.2148 101.129 30.2539 100.973 31.5586H108.578V31.4062C108.539 30.1875 108.191 29.1953 107.535 28.4297C106.879 27.6641 106.02 27.2812 104.957 27.2812ZM118.562 27.5156C118.266 27.4609 117.949 27.4336 117.613 27.4336C116.738 27.4336 115.996 27.6797 115.387 28.1719C114.785 28.6562 114.355 29.3633 114.098 30.293V39H112.703V26.3203H114.074L114.098 28.3359C114.84 26.8359 116.031 26.0859 117.672 26.0859C118.062 26.0859 118.371 26.1367 118.598 26.2383L118.562 27.5156ZM125.465 39.2344C124.387 39.2344 123.41 38.9688 122.535 38.4375C121.668 37.9062 120.992 37.168 120.508 36.2227C120.023 35.2695 119.781 34.2031 119.781 33.0234V32.5195C119.781 31.3008 120.016 30.2031 120.484 29.2266C120.961 28.25 121.621 27.4844 122.465 26.9297C123.309 26.3672 124.223 26.0859 125.207 26.0859C126.746 26.0859 127.965 26.6133 128.863 27.668C129.77 28.7148 130.223 30.1484 130.223 31.9688V32.7539H121.176V33.0234C121.176 34.4609 121.586 35.6602 122.406 36.6211C123.234 37.5742 124.273 38.0508 125.523 38.0508C126.273 38.0508 126.934 37.9141 127.504 37.6406C128.082 37.3672 128.605 36.9297 129.074 36.3281L129.953 36.9961C128.922 38.4883 127.426 39.2344 125.465 39.2344ZM125.207 27.2812C124.152 27.2812 123.262 27.668 122.535 28.4414C121.816 29.2148 121.379 30.2539 121.223 31.5586H128.828V31.4062C128.789 30.1875 128.441 29.1953 127.785 28.4297C127.129 27.6641 126.27 27.2812 125.207 27.2812ZM132.391 32.543C132.391 30.5742 132.828 29.0078 133.703 27.8438C134.586 26.6719 135.781 26.0859 137.289 26.0859C139 26.0859 140.305 26.7617 141.203 28.1133V21H142.598V39H141.285L141.227 37.3125C140.328 38.5938 139.008 39.2344 137.266 39.2344C135.805 39.2344 134.625 38.6484 133.727 37.4766C132.836 36.2969 132.391 34.707 132.391 32.707V32.543ZM133.809 32.7891C133.809 34.4062 134.133 35.6836 134.781 36.6211C135.43 37.5508 136.344 38.0156 137.523 38.0156C139.25 38.0156 140.477 37.2539 141.203 35.7305V29.7773C140.477 28.1289 139.258 27.3047 137.547 27.3047C136.367 27.3047 135.449 27.7695 134.793 28.6992C134.137 29.6211 133.809 30.9844 133.809 32.7891ZM162.332 32.7891C162.332 34.7656 161.895 36.3359 161.02 37.5C160.145 38.6562 158.969 39.2344 157.492 39.2344C155.727 39.2344 154.391 38.5781 153.484 37.2656L153.426 39H152.113V21H153.508V28.1602C154.398 26.7773 155.719 26.0859 157.469 26.0859C158.969 26.0859 160.152 26.6602 161.02 27.8086C161.895 28.9492 162.332 30.5391 162.332 32.5781V32.7891ZM160.926 32.543C160.926 30.8711 160.602 29.582 159.953 28.6758C159.305 27.7617 158.391 27.3047 157.211 27.3047C156.312 27.3047 155.551 27.5273 154.926 27.9727C154.301 28.4102 153.828 29.0547 153.508 29.9062V35.625C154.211 37.2188 155.453 38.0156 157.234 38.0156C158.391 38.0156 159.293 37.5586 159.941 36.6445C160.598 35.7305 160.926 34.3633 160.926 32.543ZM169.316 36.9844L173.02 26.3203H174.531L169.117 41.1562L168.836 41.8125C168.141 43.3516 167.066 44.1211 165.613 44.1211C165.277 44.1211 164.918 44.0664 164.535 43.957L164.523 42.7969L165.25 42.8672C165.938 42.8672 166.492 42.6953 166.914 42.3516C167.344 42.0156 167.707 41.4336 168.004 40.6055L168.625 38.8945L163.844 26.3203H165.379L169.316 36.9844Z" fill="#2F2F2F"/>
<path d="M193.445 32.7773C193.445 34.8086 193.012 36.3945 192.145 37.5352C191.277 38.668 190.066 39.2344 188.512 39.2344C187.137 39.2344 186.039 38.707 185.219 37.6523L185.066 39H182.02V21H185.406V27.457C186.188 26.543 187.215 26.0859 188.488 26.0859C190.035 26.0859 191.246 26.6562 192.121 27.7969C193.004 28.9297 193.445 30.5273 193.445 32.5898V32.7773ZM190.059 32.5312C190.059 31.25 189.855 30.3164 189.449 29.7305C189.043 29.1367 188.438 28.8398 187.633 28.8398C186.555 28.8398 185.812 29.2812 185.406 30.1641V35.168C185.82 36.0586 186.57 36.5039 187.656 36.5039C188.75 36.5039 189.469 35.9648 189.812 34.8867C189.977 34.3711 190.059 33.5859 190.059 32.5312ZM199.117 39H195.719V21H199.117V39ZM205.492 39H202.094V26.3203H205.492V39ZM201.895 23.0391C201.895 22.5312 202.062 22.1133 202.398 21.7852C202.742 21.457 203.207 21.293 203.793 21.293C204.371 21.293 204.832 21.457 205.176 21.7852C205.52 22.1133 205.691 22.5312 205.691 23.0391C205.691 23.5547 205.516 23.9766 205.164 24.3047C204.82 24.6328 204.363 24.7969 203.793 24.7969C203.223 24.7969 202.762 24.6328 202.41 24.3047C202.066 23.9766 201.895 23.5547 201.895 23.0391ZM211.469 26.3203L211.574 27.7383C212.473 26.6367 213.688 26.0859 215.219 26.0859C216.852 26.0859 217.973 26.7305 218.582 28.0195C219.473 26.7305 220.742 26.0859 222.391 26.0859C223.766 26.0859 224.789 26.4883 225.461 27.293C226.133 28.0898 226.469 29.293 226.469 30.9023V39H223.07V30.9141C223.07 30.1953 222.93 29.6719 222.648 29.3438C222.367 29.0078 221.871 28.8398 221.16 28.8398C220.145 28.8398 219.441 29.3242 219.051 30.293L219.062 39H215.676V30.9258C215.676 30.1914 215.531 29.6602 215.242 29.332C214.953 29.0039 214.461 28.8398 213.766 28.8398C212.805 28.8398 212.109 29.2383 211.68 30.0352V39H208.293V26.3203H211.469ZM240.496 32.7773C240.496 34.7305 240.051 36.2969 239.16 37.4766C238.277 38.6484 237.082 39.2344 235.574 39.2344C234.293 39.2344 233.258 38.7891 232.469 37.8984V43.875H229.082V26.3203H232.223L232.34 27.5625C233.16 26.5781 234.23 26.0859 235.551 26.0859C237.113 26.0859 238.328 26.6641 239.195 27.8203C240.062 28.9766 240.496 30.5703 240.496 32.6016V32.7773ZM237.109 32.5312C237.109 31.3516 236.898 30.4414 236.477 29.8008C236.062 29.1602 235.457 28.8398 234.66 28.8398C233.598 28.8398 232.867 29.2461 232.469 30.0586V35.25C232.883 36.0859 233.621 36.5039 234.684 36.5039C236.301 36.5039 237.109 35.1797 237.109 32.5312ZM242.781 37.3359C242.781 36.7969 242.961 36.3594 243.32 36.0234C243.688 35.6875 244.145 35.5195 244.691 35.5195C245.246 35.5195 245.703 35.6875 246.062 36.0234C246.43 36.3594 246.613 36.7969 246.613 37.3359C246.613 37.8672 246.434 38.3008 246.074 38.6367C245.715 38.9648 245.254 39.1289 244.691 39.1289C244.137 39.1289 243.68 38.9648 243.32 38.6367C242.961 38.3008 242.781 37.8672 242.781 37.3359ZM253.164 39H249.766V21H253.164V39ZM259.539 39H256.141V26.3203H259.539V39ZM255.941 23.0391C255.941 22.5312 256.109 22.1133 256.445 21.7852C256.789 21.457 257.254 21.293 257.84 21.293C258.418 21.293 258.879 21.457 259.223 21.7852C259.566 22.1133 259.738 22.5312 259.738 23.0391C259.738 23.5547 259.562 23.9766 259.211 24.3047C258.867 24.6328 258.41 24.7969 257.84 24.7969C257.27 24.7969 256.809 24.6328 256.457 24.3047C256.113 23.9766 255.941 23.5547 255.941 23.0391ZM267.086 34.8633L269.441 26.3203H272.98L268.703 39H265.469L261.191 26.3203H264.73L267.086 34.8633ZM280.152 39.2344C278.293 39.2344 276.777 38.6641 275.605 37.5234C274.441 36.3828 273.859 34.8633 273.859 32.9648V32.6367C273.859 31.3633 274.105 30.2266 274.598 29.2266C275.09 28.2188 275.785 27.4453 276.684 26.9062C277.59 26.3594 278.621 26.0859 279.777 26.0859C281.512 26.0859 282.875 26.6328 283.867 27.7266C284.867 28.8203 285.367 30.3711 285.367 32.3789V33.7617H277.293C277.402 34.5898 277.73 35.2539 278.277 35.7539C278.832 36.2539 279.531 36.5039 280.375 36.5039C281.68 36.5039 282.699 36.0312 283.434 35.0859L285.098 36.9492C284.59 37.668 283.902 38.2305 283.035 38.6367C282.168 39.0352 281.207 39.2344 280.152 39.2344ZM279.766 28.8281C279.094 28.8281 278.547 29.0547 278.125 29.5078C277.711 29.9609 277.445 30.6094 277.328 31.4531H282.039V31.1836C282.023 30.4336 281.82 29.8555 281.43 29.4492C281.039 29.0352 280.484 28.8281 279.766 28.8281Z" fill="black"/>
<rect x="182" y="42" width="104" height="2" fill="black"/>
</svg>
